M48
;GenerationSoftware,Autodesk,EAGLE,9.0.0*%
;CreationDate,2019-05-23T14:05:41Z*%
FMAT,2
ICI,OFF
METRIC,TZ,000.000
T11C0.800
T10C0.813
T9C0.900
T8C0.950
T7C1.000
T6C1.016
T5C1.118
T4C1.254
T3C1.416
T2C2.000
T1C2.300
%
G90
M71
T1
X89807Y128999
X77767Y128999
T2
X129190Y101092
X100990Y101092
X87280Y34290
X59080Y34290
X172370Y34290
X144170Y34290
T3
X102605Y129574
T4
X89793Y129007
X77747Y128992
T5
X128928Y117909
X128928Y128069
T6
X57150Y77470
X57150Y80010
X57150Y82550
X53340Y60960
X107842Y132090
X107842Y129550
X107842Y127010
X92710Y101092
X90170Y101092
X87630Y101092
X53340Y66040
X60960Y92710
X60960Y95250
X60960Y97790
X170180Y105410
X170180Y107950
X170180Y110490
X53340Y63500
X172720Y92710
X172720Y95250
X172720Y97790
X176530Y80010
X176530Y82550
X176530Y85090
X166370Y118110
X166370Y120650
X179070Y67310
X179070Y69850
X179070Y72390
X182880Y54610
X96520Y41910
X99060Y41910
X101600Y41910
X96520Y26670
X99060Y26670
X101600Y26670
X181610Y41910
X184150Y41910
X186690Y41910
X181610Y26670
X184150Y26670
X186690Y26670
X137160Y93472
X139700Y93472
X142240Y93472
X137279Y109349
X139819Y109349
X166370Y123190
X142359Y109349
X182880Y57150
X182880Y59690
X135890Y34290
X133350Y34290
X130810Y34290
X50800Y34290
X48260Y34290
X45720Y34290
T7
X139590Y128940
X144390Y131940
X144390Y125840
T8
X82537Y126289
X85037Y126289
X85037Y124289
X82537Y124289
T9
X157480Y38100
X154940Y38100
X152400Y38100
X82550Y38100
X109220Y97282
X111760Y97282
X114300Y97282
X116840Y97282
X119380Y97282
X121920Y97282
X124460Y97282
X124460Y104902
X121920Y104902
X119380Y104902
X116840Y104902
X114300Y104902
X111760Y104902
X109220Y104902
X67310Y30480
X69850Y30480
X72390Y30480
X74930Y30480
X77470Y30480
X80010Y30480
X82550Y30480
X80010Y38100
X77470Y38100
X74930Y38100
X72390Y38100
X69850Y38100
X67310Y38100
X152400Y30480
X154940Y30480
X157480Y30480
X160020Y30480
X162560Y30480
X165100Y30480
X167640Y30480
X167640Y38100
X165100Y38100
X162560Y38100
X160020Y38100
T10
X133350Y73660
X130810Y73660
X128270Y73660
X125730Y73660
X46990Y100330
X46990Y90170
X41910Y74930
X41910Y85090
X38100Y58420
X38100Y68580
X54610Y95250
X52070Y95250
X50800Y80010
X48260Y80010
X161290Y95250
X163830Y95250
X158750Y107950
X161290Y107950
X154940Y120650
X157480Y120650
X167640Y100330
X167640Y90170
X165100Y113030
X165100Y102870
X161290Y125730
X161290Y115570
X46990Y63500
X44450Y63500
X119859Y118556
X119859Y116016
X133386Y125072
X133386Y114912
X113030Y66040
X133350Y66040
X130810Y66040
X170180Y57150
X172720Y57150
X167640Y69850
X170180Y69850
X165100Y82550
X167640Y82550
X177800Y62230
X177800Y52070
X173990Y74930
X173990Y64770
X171450Y87630
X171450Y77470
X128270Y66040
X125730Y66040
X123190Y66040
X120650Y66040
X118110Y66040
X115570Y66040
X110490Y66040
X107950Y66040
X105410Y66040
X186690Y52070
X186690Y62230
X182880Y64770
X182880Y74930
X180340Y77470
X180340Y87630
X176530Y90170
X176530Y100330
X173990Y102870
X173990Y113030
X170180Y115570
X170180Y125730
X95222Y132392
X102870Y66040
X100330Y66040
X100330Y73660
X102870Y73660
X105410Y73660
X107950Y73660
X110490Y73660
X113030Y73660
X115570Y73660
X118110Y73660
X120650Y73660
X123190Y73660
X134748Y131028
X132208Y131028
X95222Y129852
T11
X183272Y93162
X185282Y93152
X184904Y84791
X186904Y84791
X188904Y84791
X184924Y80281
X186874Y80281
X188884Y80271
X187303Y72227
X189303Y72227
X191303Y72227
X174948Y123085
X189273Y67717
X191283Y67707
X191165Y59318
X193165Y59318
X195165Y59318
X191185Y54808
X193135Y54808
X195145Y54798
X176948Y123085
X178948Y123085
X174968Y118575
X176918Y118575
X178928Y118565
X178547Y110237
X180547Y110237
X182547Y110237
X178567Y105727
X113780Y115844
X111780Y115844
X109780Y115844
X113760Y120354
X111810Y120354
X109800Y120364
X180517Y105727
X182527Y105717
X181302Y97672
X183302Y97672
X185302Y97672
X181322Y93162
X187323Y67717
M30