G04 EAGLE Gerber X2 export*
%TF.Part,Single*%
%TF.FileFunction,Profile,NP*%
%TF.FilePolarity,Positive*%
%TF.GenerationSoftware,Autodesk,EAGLE,9.0.0*%
%TF.CreationDate,2019-05-23T14:05:43Z*%
G75*
%MOMM*%
%FSLAX34Y34*%
%LPD*%
%AMOC8*
5,1,8,0,0,1.08239X$1,22.5*%
G01*
%ADD10C,0.254000*%


D10*
X171450Y190500D02*
X2135351Y191341D01*
X1833227Y1399495D01*
X489271Y1394936D01*
X171450Y190500D01*
X1429901Y1314398D02*
X1457901Y1314398D01*
X1457901Y1324398D01*
X1429901Y1324398D01*
X1429901Y1314398D01*
X1427401Y1253398D02*
X1460401Y1253398D01*
X1460401Y1263398D01*
X1427401Y1263398D01*
X1427401Y1253398D01*
X1390901Y1275398D02*
X1400901Y1275398D01*
X1400901Y1303398D01*
X1390901Y1303398D01*
X1390901Y1275398D01*
X1301900Y1010483D02*
X1301824Y1009614D01*
X1301672Y1008754D01*
X1301446Y1007910D01*
X1301148Y1007090D01*
X1300779Y1006298D01*
X1300342Y1005542D01*
X1299841Y1004827D01*
X1299280Y1004158D01*
X1298662Y1003540D01*
X1297993Y1002979D01*
X1297278Y1002478D01*
X1296522Y1002041D01*
X1295730Y1001672D01*
X1294910Y1001374D01*
X1294066Y1001148D01*
X1293207Y1000996D01*
X1292337Y1000920D01*
X1291463Y1000920D01*
X1290594Y1000996D01*
X1289734Y1001148D01*
X1288890Y1001374D01*
X1288070Y1001672D01*
X1287278Y1002041D01*
X1286522Y1002478D01*
X1285807Y1002979D01*
X1285138Y1003540D01*
X1284520Y1004158D01*
X1283959Y1004827D01*
X1283458Y1005542D01*
X1283021Y1006298D01*
X1282652Y1007090D01*
X1282354Y1007910D01*
X1282128Y1008754D01*
X1281976Y1009614D01*
X1281900Y1010483D01*
X1281900Y1011357D01*
X1281976Y1012227D01*
X1282128Y1013086D01*
X1282354Y1013930D01*
X1282652Y1014750D01*
X1283021Y1015542D01*
X1283458Y1016298D01*
X1283959Y1017013D01*
X1284520Y1017682D01*
X1285138Y1018300D01*
X1285807Y1018861D01*
X1286522Y1019362D01*
X1287278Y1019799D01*
X1288070Y1020168D01*
X1288890Y1020466D01*
X1289734Y1020692D01*
X1290594Y1020844D01*
X1291463Y1020920D01*
X1292337Y1020920D01*
X1293207Y1020844D01*
X1294066Y1020692D01*
X1294910Y1020466D01*
X1295730Y1020168D01*
X1296522Y1019799D01*
X1297278Y1019362D01*
X1297993Y1018861D01*
X1298662Y1018300D01*
X1299280Y1017682D01*
X1299841Y1017013D01*
X1300342Y1016298D01*
X1300779Y1015542D01*
X1301148Y1014750D01*
X1301446Y1013930D01*
X1301672Y1013086D01*
X1301824Y1012227D01*
X1301900Y1011357D01*
X1301900Y1010483D01*
X1019900Y1010483D02*
X1019824Y1009614D01*
X1019672Y1008754D01*
X1019446Y1007910D01*
X1019148Y1007090D01*
X1018779Y1006298D01*
X1018342Y1005542D01*
X1017841Y1004827D01*
X1017280Y1004158D01*
X1016662Y1003540D01*
X1015993Y1002979D01*
X1015278Y1002478D01*
X1014522Y1002041D01*
X1013730Y1001672D01*
X1012910Y1001374D01*
X1012066Y1001148D01*
X1011207Y1000996D01*
X1010337Y1000920D01*
X1009463Y1000920D01*
X1008594Y1000996D01*
X1007734Y1001148D01*
X1006890Y1001374D01*
X1006070Y1001672D01*
X1005278Y1002041D01*
X1004522Y1002478D01*
X1003807Y1002979D01*
X1003138Y1003540D01*
X1002520Y1004158D01*
X1001959Y1004827D01*
X1001458Y1005542D01*
X1001021Y1006298D01*
X1000652Y1007090D01*
X1000354Y1007910D01*
X1000128Y1008754D01*
X999976Y1009614D01*
X999900Y1010483D01*
X999900Y1011357D01*
X999976Y1012227D01*
X1000128Y1013086D01*
X1000354Y1013930D01*
X1000652Y1014750D01*
X1001021Y1015542D01*
X1001458Y1016298D01*
X1001959Y1017013D01*
X1002520Y1017682D01*
X1003138Y1018300D01*
X1003807Y1018861D01*
X1004522Y1019362D01*
X1005278Y1019799D01*
X1006070Y1020168D01*
X1006890Y1020466D01*
X1007734Y1020692D01*
X1008594Y1020844D01*
X1009463Y1020920D01*
X1010337Y1020920D01*
X1011207Y1020844D01*
X1012066Y1020692D01*
X1012910Y1020466D01*
X1013730Y1020168D01*
X1014522Y1019799D01*
X1015278Y1019362D01*
X1015993Y1018861D01*
X1016662Y1018300D01*
X1017280Y1017682D01*
X1017841Y1017013D01*
X1018342Y1016298D01*
X1018779Y1015542D01*
X1019148Y1014750D01*
X1019446Y1013930D01*
X1019672Y1013086D01*
X1019824Y1012227D01*
X1019900Y1011357D01*
X1019900Y1010483D01*
X882800Y342463D02*
X882724Y341594D01*
X882572Y340734D01*
X882346Y339890D01*
X882048Y339070D01*
X881679Y338278D01*
X881242Y337522D01*
X880741Y336807D01*
X880180Y336138D01*
X879562Y335520D01*
X878893Y334959D01*
X878178Y334458D01*
X877422Y334021D01*
X876630Y333652D01*
X875810Y333354D01*
X874966Y333128D01*
X874107Y332976D01*
X873237Y332900D01*
X872363Y332900D01*
X871494Y332976D01*
X870634Y333128D01*
X869790Y333354D01*
X868970Y333652D01*
X868178Y334021D01*
X867422Y334458D01*
X866707Y334959D01*
X866038Y335520D01*
X865420Y336138D01*
X864859Y336807D01*
X864358Y337522D01*
X863921Y338278D01*
X863552Y339070D01*
X863254Y339890D01*
X863028Y340734D01*
X862876Y341594D01*
X862800Y342463D01*
X862800Y343337D01*
X862876Y344207D01*
X863028Y345066D01*
X863254Y345910D01*
X863552Y346730D01*
X863921Y347522D01*
X864358Y348278D01*
X864859Y348993D01*
X865420Y349662D01*
X866038Y350280D01*
X866707Y350841D01*
X867422Y351342D01*
X868178Y351779D01*
X868970Y352148D01*
X869790Y352446D01*
X870634Y352672D01*
X871494Y352824D01*
X872363Y352900D01*
X873237Y352900D01*
X874107Y352824D01*
X874966Y352672D01*
X875810Y352446D01*
X876630Y352148D01*
X877422Y351779D01*
X878178Y351342D01*
X878893Y350841D01*
X879562Y350280D01*
X880180Y349662D01*
X880741Y348993D01*
X881242Y348278D01*
X881679Y347522D01*
X882048Y346730D01*
X882346Y345910D01*
X882572Y345066D01*
X882724Y344207D01*
X882800Y343337D01*
X882800Y342463D01*
X600800Y342463D02*
X600724Y341594D01*
X600572Y340734D01*
X600346Y339890D01*
X600048Y339070D01*
X599679Y338278D01*
X599242Y337522D01*
X598741Y336807D01*
X598180Y336138D01*
X597562Y335520D01*
X596893Y334959D01*
X596178Y334458D01*
X595422Y334021D01*
X594630Y333652D01*
X593810Y333354D01*
X592966Y333128D01*
X592107Y332976D01*
X591237Y332900D01*
X590363Y332900D01*
X589494Y332976D01*
X588634Y333128D01*
X587790Y333354D01*
X586970Y333652D01*
X586178Y334021D01*
X585422Y334458D01*
X584707Y334959D01*
X584038Y335520D01*
X583420Y336138D01*
X582859Y336807D01*
X582358Y337522D01*
X581921Y338278D01*
X581552Y339070D01*
X581254Y339890D01*
X581028Y340734D01*
X580876Y341594D01*
X580800Y342463D01*
X580800Y343337D01*
X580876Y344207D01*
X581028Y345066D01*
X581254Y345910D01*
X581552Y346730D01*
X581921Y347522D01*
X582358Y348278D01*
X582859Y348993D01*
X583420Y349662D01*
X584038Y350280D01*
X584707Y350841D01*
X585422Y351342D01*
X586178Y351779D01*
X586970Y352148D01*
X587790Y352446D01*
X588634Y352672D01*
X589494Y352824D01*
X590363Y352900D01*
X591237Y352900D01*
X592107Y352824D01*
X592966Y352672D01*
X593810Y352446D01*
X594630Y352148D01*
X595422Y351779D01*
X596178Y351342D01*
X596893Y350841D01*
X597562Y350280D01*
X598180Y349662D01*
X598741Y348993D01*
X599242Y348278D01*
X599679Y347522D01*
X600048Y346730D01*
X600346Y345910D01*
X600572Y345066D01*
X600724Y344207D01*
X600800Y343337D01*
X600800Y342463D01*
X1733700Y342463D02*
X1733624Y341594D01*
X1733472Y340734D01*
X1733246Y339890D01*
X1732948Y339070D01*
X1732579Y338278D01*
X1732142Y337522D01*
X1731641Y336807D01*
X1731080Y336138D01*
X1730462Y335520D01*
X1729793Y334959D01*
X1729078Y334458D01*
X1728322Y334021D01*
X1727530Y333652D01*
X1726710Y333354D01*
X1725866Y333128D01*
X1725007Y332976D01*
X1724137Y332900D01*
X1723263Y332900D01*
X1722394Y332976D01*
X1721534Y333128D01*
X1720690Y333354D01*
X1719870Y333652D01*
X1719078Y334021D01*
X1718322Y334458D01*
X1717607Y334959D01*
X1716938Y335520D01*
X1716320Y336138D01*
X1715759Y336807D01*
X1715258Y337522D01*
X1714821Y338278D01*
X1714452Y339070D01*
X1714154Y339890D01*
X1713928Y340734D01*
X1713776Y341594D01*
X1713700Y342463D01*
X1713700Y343337D01*
X1713776Y344207D01*
X1713928Y345066D01*
X1714154Y345910D01*
X1714452Y346730D01*
X1714821Y347522D01*
X1715258Y348278D01*
X1715759Y348993D01*
X1716320Y349662D01*
X1716938Y350280D01*
X1717607Y350841D01*
X1718322Y351342D01*
X1719078Y351779D01*
X1719870Y352148D01*
X1720690Y352446D01*
X1721534Y352672D01*
X1722394Y352824D01*
X1723263Y352900D01*
X1724137Y352900D01*
X1725007Y352824D01*
X1725866Y352672D01*
X1726710Y352446D01*
X1727530Y352148D01*
X1728322Y351779D01*
X1729078Y351342D01*
X1729793Y350841D01*
X1730462Y350280D01*
X1731080Y349662D01*
X1731641Y348993D01*
X1732142Y348278D01*
X1732579Y347522D01*
X1732948Y346730D01*
X1733246Y345910D01*
X1733472Y345066D01*
X1733624Y344207D01*
X1733700Y343337D01*
X1733700Y342463D01*
X1451700Y342463D02*
X1451624Y341594D01*
X1451472Y340734D01*
X1451246Y339890D01*
X1450948Y339070D01*
X1450579Y338278D01*
X1450142Y337522D01*
X1449641Y336807D01*
X1449080Y336138D01*
X1448462Y335520D01*
X1447793Y334959D01*
X1447078Y334458D01*
X1446322Y334021D01*
X1445530Y333652D01*
X1444710Y333354D01*
X1443866Y333128D01*
X1443007Y332976D01*
X1442137Y332900D01*
X1441263Y332900D01*
X1440394Y332976D01*
X1439534Y333128D01*
X1438690Y333354D01*
X1437870Y333652D01*
X1437078Y334021D01*
X1436322Y334458D01*
X1435607Y334959D01*
X1434938Y335520D01*
X1434320Y336138D01*
X1433759Y336807D01*
X1433258Y337522D01*
X1432821Y338278D01*
X1432452Y339070D01*
X1432154Y339890D01*
X1431928Y340734D01*
X1431776Y341594D01*
X1431700Y342463D01*
X1431700Y343337D01*
X1431776Y344207D01*
X1431928Y345066D01*
X1432154Y345910D01*
X1432452Y346730D01*
X1432821Y347522D01*
X1433258Y348278D01*
X1433759Y348993D01*
X1434320Y349662D01*
X1434938Y350280D01*
X1435607Y350841D01*
X1436322Y351342D01*
X1437078Y351779D01*
X1437870Y352148D01*
X1438690Y352446D01*
X1439534Y352672D01*
X1440394Y352824D01*
X1441263Y352900D01*
X1442137Y352900D01*
X1443007Y352824D01*
X1443866Y352672D01*
X1444710Y352446D01*
X1445530Y352148D01*
X1446322Y351779D01*
X1447078Y351342D01*
X1447793Y350841D01*
X1448462Y350280D01*
X1449080Y349662D01*
X1449641Y348993D01*
X1450142Y348278D01*
X1450579Y347522D01*
X1450948Y346730D01*
X1451246Y345910D01*
X1451472Y345066D01*
X1451624Y344207D01*
X1451700Y343337D01*
X1451700Y342463D01*
X886569Y1290440D02*
X886640Y1291341D01*
X886781Y1292233D01*
X886992Y1293112D01*
X887271Y1293971D01*
X887617Y1294806D01*
X888027Y1295611D01*
X888499Y1296382D01*
X889031Y1297113D01*
X889617Y1297800D01*
X890256Y1298439D01*
X890944Y1299026D01*
X891675Y1299557D01*
X892445Y1300029D01*
X893250Y1300440D01*
X894085Y1300785D01*
X894945Y1301065D01*
X895823Y1301276D01*
X896716Y1301417D01*
X897617Y1301488D01*
X898521Y1301488D01*
X899421Y1301417D01*
X900314Y1301276D01*
X901193Y1301065D01*
X902052Y1300785D01*
X902887Y1300440D01*
X903692Y1300029D01*
X904463Y1299557D01*
X905194Y1299026D01*
X905881Y1298439D01*
X906520Y1297800D01*
X907107Y1297113D01*
X907638Y1296382D01*
X908110Y1295611D01*
X908520Y1294806D01*
X908866Y1293971D01*
X909145Y1293112D01*
X909356Y1292233D01*
X909498Y1291341D01*
X909569Y1290440D01*
X909569Y1289536D01*
X909498Y1288635D01*
X909356Y1287743D01*
X909145Y1286864D01*
X908866Y1286005D01*
X908520Y1285170D01*
X908110Y1284364D01*
X907638Y1283594D01*
X907107Y1282863D01*
X906520Y1282176D01*
X905881Y1281537D01*
X905194Y1280950D01*
X904463Y1280419D01*
X903692Y1279946D01*
X902887Y1279536D01*
X902052Y1279190D01*
X901193Y1278911D01*
X900314Y1278700D01*
X899421Y1278559D01*
X898521Y1278488D01*
X897617Y1278488D01*
X896716Y1278559D01*
X895823Y1278700D01*
X894945Y1278911D01*
X894085Y1279190D01*
X893250Y1279536D01*
X892445Y1279946D01*
X891675Y1280419D01*
X890944Y1280950D01*
X890256Y1281537D01*
X889617Y1282176D01*
X889031Y1282863D01*
X888499Y1283594D01*
X888027Y1284364D01*
X887617Y1285170D01*
X887271Y1286005D01*
X886992Y1286864D01*
X886781Y1287743D01*
X886640Y1288635D01*
X886569Y1289536D01*
X886569Y1290440D01*
X766169Y1290440D02*
X766240Y1291341D01*
X766381Y1292233D01*
X766592Y1293112D01*
X766871Y1293971D01*
X767217Y1294806D01*
X767627Y1295611D01*
X768099Y1296382D01*
X768631Y1297113D01*
X769217Y1297800D01*
X769856Y1298439D01*
X770544Y1299026D01*
X771275Y1299557D01*
X772045Y1300029D01*
X772850Y1300440D01*
X773685Y1300785D01*
X774545Y1301065D01*
X775423Y1301276D01*
X776316Y1301417D01*
X777217Y1301488D01*
X778121Y1301488D01*
X779021Y1301417D01*
X779914Y1301276D01*
X780793Y1301065D01*
X781652Y1300785D01*
X782487Y1300440D01*
X783292Y1300029D01*
X784063Y1299557D01*
X784794Y1299026D01*
X785481Y1298439D01*
X786120Y1297800D01*
X786707Y1297113D01*
X787238Y1296382D01*
X787710Y1295611D01*
X788120Y1294806D01*
X788466Y1293971D01*
X788745Y1293112D01*
X788956Y1292233D01*
X789098Y1291341D01*
X789169Y1290440D01*
X789169Y1289536D01*
X789098Y1288635D01*
X788956Y1287743D01*
X788745Y1286864D01*
X788466Y1286005D01*
X788120Y1285170D01*
X787710Y1284364D01*
X787238Y1283594D01*
X786707Y1282863D01*
X786120Y1282176D01*
X785481Y1281537D01*
X784794Y1280950D01*
X784063Y1280419D01*
X783292Y1279946D01*
X782487Y1279536D01*
X781652Y1279190D01*
X780793Y1278911D01*
X779914Y1278700D01*
X779021Y1278559D01*
X778121Y1278488D01*
X777217Y1278488D01*
X776316Y1278559D01*
X775423Y1278700D01*
X774545Y1278911D01*
X773685Y1279190D01*
X772850Y1279536D01*
X772045Y1279946D01*
X771275Y1280419D01*
X770544Y1280950D01*
X769856Y1281537D01*
X769217Y1282176D01*
X768631Y1282863D01*
X768099Y1283594D01*
X767627Y1284364D01*
X767217Y1285170D01*
X766871Y1286005D01*
X766592Y1286864D01*
X766381Y1287743D01*
X766240Y1288635D01*
X766169Y1289536D01*
X766169Y1290440D01*
M02*
