G04 EAGLE Gerber X2 export*
%TF.Part,Single*%
%TF.FileFunction,Soldermask,Bot,1*%
%TF.FilePolarity,Negative*%
%TF.GenerationSoftware,Autodesk,EAGLE,9.0.0*%
%TF.CreationDate,2019-05-23T14:05:43Z*%
G75*
%MOMM*%
%FSLAX34Y34*%
%LPD*%
%AMOC8*
5,1,8,0,0,1.08239X$1,22.5*%
G01*
%ADD10C,1.524000*%
%ADD11C,1.611200*%
%ADD12C,2.203200*%
%ADD13P,1.649562X8X112.500000*%
%ADD14C,1.727200*%
%ADD15P,1.649562X8X22.500000*%
%ADD16P,1.649562X8X292.500000*%
%ADD17C,1.511200*%
%ADD18P,1.798066X8X202.500000*%
%ADD19C,2.503200*%
%ADD20C,2.203200*%
%ADD21C,1.879600*%
%ADD22P,1.951982X8X22.500000*%
%ADD23C,1.803400*%
%ADD24P,1.951982X8X292.500000*%
%ADD25C,3.251200*%
%ADD26C,2.519200*%


D10*
X1333500Y743204D02*
X1333500Y729996D01*
X1308100Y729996D02*
X1308100Y743204D01*
X1282700Y743204D02*
X1282700Y729996D01*
X1257300Y729996D02*
X1257300Y743204D01*
X1231900Y743204D02*
X1231900Y729996D01*
X1206500Y729996D02*
X1206500Y743204D01*
X1181100Y743204D02*
X1181100Y729996D01*
X1155700Y729996D02*
X1155700Y743204D01*
X1130300Y743204D02*
X1130300Y729996D01*
X1104900Y729996D02*
X1104900Y743204D01*
X1079500Y743204D02*
X1079500Y729996D01*
X1054100Y729996D02*
X1054100Y743204D01*
X1028700Y743204D02*
X1028700Y729996D01*
X1003300Y729996D02*
X1003300Y743204D01*
X1003300Y667004D02*
X1003300Y653796D01*
X1028700Y653796D02*
X1028700Y667004D01*
X1054100Y667004D02*
X1054100Y653796D01*
X1079500Y653796D02*
X1079500Y667004D01*
X1104900Y667004D02*
X1104900Y653796D01*
X1130300Y653796D02*
X1130300Y667004D01*
X1155700Y667004D02*
X1155700Y653796D01*
X1181100Y653796D02*
X1181100Y667004D01*
X1206500Y667004D02*
X1206500Y653796D01*
X1231900Y653796D02*
X1231900Y667004D01*
X1257300Y667004D02*
X1257300Y653796D01*
X1282700Y653796D02*
X1282700Y667004D01*
X1308100Y667004D02*
X1308100Y653796D01*
X1333500Y653796D02*
X1333500Y667004D01*
D11*
X1092200Y965780D02*
X1092200Y979860D01*
X1117600Y979860D02*
X1117600Y965780D01*
X1143000Y965780D02*
X1143000Y979860D01*
X1168400Y979860D02*
X1168400Y965780D01*
X1193800Y965780D02*
X1193800Y979860D01*
X1219200Y979860D02*
X1219200Y965780D01*
X1244600Y965780D02*
X1244600Y979860D01*
X1244600Y1041980D02*
X1244600Y1056060D01*
X1219200Y1056060D02*
X1219200Y1041980D01*
X1193800Y1041980D02*
X1193800Y1056060D01*
X1168400Y1056060D02*
X1168400Y1041980D01*
X1143000Y1041980D02*
X1143000Y1056060D01*
X1117600Y1056060D02*
X1117600Y1041980D01*
X1092200Y1041980D02*
X1092200Y1056060D01*
D12*
X1291900Y1010920D03*
X1009900Y1010920D03*
D11*
X673100Y311840D02*
X673100Y297760D01*
X698500Y297760D02*
X698500Y311840D01*
X723900Y311840D02*
X723900Y297760D01*
X749300Y297760D02*
X749300Y311840D01*
X774700Y311840D02*
X774700Y297760D01*
X800100Y297760D02*
X800100Y311840D01*
X825500Y311840D02*
X825500Y297760D01*
X825500Y373960D02*
X825500Y388040D01*
X800100Y388040D02*
X800100Y373960D01*
X774700Y373960D02*
X774700Y388040D01*
X749300Y388040D02*
X749300Y373960D01*
X723900Y373960D02*
X723900Y388040D01*
X698500Y388040D02*
X698500Y373960D01*
X673100Y373960D02*
X673100Y388040D01*
D12*
X872800Y342900D03*
X590800Y342900D03*
D11*
X1524000Y311840D02*
X1524000Y297760D01*
X1549400Y297760D02*
X1549400Y311840D01*
X1574800Y311840D02*
X1574800Y297760D01*
X1600200Y297760D02*
X1600200Y311840D01*
X1625600Y311840D02*
X1625600Y297760D01*
X1651000Y297760D02*
X1651000Y311840D01*
X1676400Y311840D02*
X1676400Y297760D01*
X1676400Y373960D02*
X1676400Y388040D01*
X1651000Y388040D02*
X1651000Y373960D01*
X1625600Y373960D02*
X1625600Y388040D01*
X1600200Y388040D02*
X1600200Y373960D01*
X1574800Y373960D02*
X1574800Y388040D01*
X1549400Y388040D02*
X1549400Y373960D01*
X1524000Y373960D02*
X1524000Y388040D01*
D12*
X1723700Y342900D03*
X1441700Y342900D03*
D13*
X1333856Y1149119D03*
X1333856Y1250719D03*
X1198593Y1160157D03*
X1198593Y1185557D03*
D14*
X965200Y426720D02*
X965200Y411480D01*
X990600Y411480D02*
X990600Y426720D01*
X1016000Y426720D02*
X1016000Y411480D01*
X965200Y274320D02*
X965200Y259080D01*
X990600Y259080D02*
X990600Y274320D01*
X1016000Y274320D02*
X1016000Y259080D01*
X1816100Y411480D02*
X1816100Y426720D01*
X1841500Y426720D02*
X1841500Y411480D01*
X1866900Y411480D02*
X1866900Y426720D01*
X1816100Y274320D02*
X1816100Y259080D01*
X1841500Y259080D02*
X1841500Y274320D01*
X1866900Y274320D02*
X1866900Y259080D01*
X1371600Y927100D02*
X1371600Y942340D01*
X1397000Y942340D02*
X1397000Y927100D01*
X1422400Y927100D02*
X1422400Y942340D01*
X1372794Y1085871D02*
X1372794Y1101111D01*
X1398194Y1101111D02*
X1398194Y1085871D01*
X1423594Y1085871D02*
X1423594Y1101111D01*
D15*
X444500Y635000D03*
X469900Y635000D03*
X482600Y800100D03*
X508000Y800100D03*
X520700Y952500D03*
X546100Y952500D03*
D16*
X381000Y685800D03*
X381000Y584200D03*
X419100Y850900D03*
X419100Y749300D03*
D13*
X469900Y901700D03*
X469900Y1003300D03*
D14*
X601980Y927100D02*
X617220Y927100D01*
X617220Y952500D02*
X601980Y952500D01*
X601980Y977900D02*
X617220Y977900D01*
X579120Y774700D02*
X563880Y774700D01*
X563880Y800100D02*
X579120Y800100D01*
X579120Y825500D02*
X563880Y825500D01*
X541020Y609600D02*
X525780Y609600D01*
X525780Y635000D02*
X541020Y635000D01*
X541020Y660400D02*
X525780Y660400D01*
X876300Y1003300D02*
X876300Y1018540D01*
X901700Y1018540D02*
X901700Y1003300D01*
X927100Y1003300D02*
X927100Y1018540D01*
X457200Y350520D02*
X457200Y335280D01*
X482600Y335280D02*
X482600Y350520D01*
X508000Y350520D02*
X508000Y335280D01*
X1308100Y335280D02*
X1308100Y350520D01*
X1333500Y350520D02*
X1333500Y335280D01*
X1358900Y335280D02*
X1358900Y350520D01*
D15*
X1612900Y952500D03*
X1638300Y952500D03*
X1587500Y1079500D03*
X1612900Y1079500D03*
X1549400Y1206500D03*
X1574800Y1206500D03*
D16*
X1676400Y1003300D03*
X1676400Y901700D03*
X1651000Y1130300D03*
X1651000Y1028700D03*
X1612900Y1257300D03*
X1612900Y1155700D03*
D14*
X1821180Y596900D02*
X1836420Y596900D01*
X1836420Y571500D02*
X1821180Y571500D01*
X1821180Y546100D02*
X1836420Y546100D01*
X1798320Y723900D02*
X1783080Y723900D01*
X1783080Y698500D02*
X1798320Y698500D01*
X1798320Y673100D02*
X1783080Y673100D01*
X1671320Y1231900D02*
X1656080Y1231900D01*
X1656080Y1206500D02*
X1671320Y1206500D01*
X1671320Y1181100D02*
X1656080Y1181100D01*
D15*
X1701800Y571500D03*
X1727200Y571500D03*
X1676400Y698500D03*
X1701800Y698500D03*
X1651000Y825500D03*
X1676400Y825500D03*
D16*
X1778000Y622300D03*
X1778000Y520700D03*
X1739900Y749300D03*
X1739900Y647700D03*
X1714500Y876300D03*
X1714500Y774700D03*
D14*
X1757680Y850900D02*
X1772920Y850900D01*
X1772920Y825500D02*
X1757680Y825500D01*
X1757680Y800100D02*
X1772920Y800100D01*
X1734820Y977900D02*
X1719580Y977900D01*
X1719580Y952500D02*
X1734820Y952500D01*
X1734820Y927100D02*
X1719580Y927100D01*
X1709420Y1104900D02*
X1694180Y1104900D01*
X1694180Y1079500D02*
X1709420Y1079500D01*
X1709420Y1054100D02*
X1694180Y1054100D01*
D13*
X1866900Y520700D03*
X1866900Y622300D03*
X1828800Y647700D03*
X1828800Y749300D03*
X1803400Y774700D03*
X1803400Y876300D03*
X1765300Y901700D03*
X1765300Y1003300D03*
X1739900Y1028700D03*
X1739900Y1130300D03*
X1701800Y1155700D03*
X1701800Y1257300D03*
D17*
X1749482Y1237390D02*
X1749482Y1224310D01*
X1769482Y1224310D02*
X1769482Y1237390D01*
X1789482Y1237390D02*
X1789482Y1224310D01*
X1749682Y1192290D02*
X1749682Y1179210D01*
X1769182Y1179210D02*
X1769182Y1192290D01*
X1789282Y1192190D02*
X1789282Y1179110D01*
X1785474Y1108911D02*
X1785474Y1095831D01*
X1805474Y1095831D02*
X1805474Y1108911D01*
X1825474Y1108911D02*
X1825474Y1095831D01*
X1785674Y1063811D02*
X1785674Y1050731D01*
X1805174Y1050731D02*
X1805174Y1063811D01*
X1825274Y1063711D02*
X1825274Y1050631D01*
X1813022Y983262D02*
X1813022Y970182D01*
X1833022Y970182D02*
X1833022Y983262D01*
X1853022Y983262D02*
X1853022Y970182D01*
X1813222Y938162D02*
X1813222Y925082D01*
X1832722Y925082D02*
X1832722Y938162D01*
X1852822Y938062D02*
X1852822Y924982D01*
X1849040Y854454D02*
X1849040Y841374D01*
X1869040Y841374D02*
X1869040Y854454D01*
X1889040Y854454D02*
X1889040Y841374D01*
X1849240Y809354D02*
X1849240Y796274D01*
X1868740Y796274D02*
X1868740Y809354D01*
X1888840Y809254D02*
X1888840Y796174D01*
X1873026Y728809D02*
X1873026Y715729D01*
X1893026Y715729D02*
X1893026Y728809D01*
X1913026Y728809D02*
X1913026Y715729D01*
X1873226Y683709D02*
X1873226Y670629D01*
X1892726Y670629D02*
X1892726Y683709D01*
X1912826Y683609D02*
X1912826Y670529D01*
X1911654Y599717D02*
X1911654Y586637D01*
X1931654Y586637D02*
X1931654Y599717D01*
X1951654Y599717D02*
X1951654Y586637D01*
X1911854Y554617D02*
X1911854Y541537D01*
X1931354Y541537D02*
X1931354Y554617D01*
X1951454Y554517D02*
X1951454Y541437D01*
D18*
X825369Y1242888D03*
X850369Y1242888D03*
X850369Y1262888D03*
X825369Y1262888D03*
D19*
X898069Y1289988D03*
X777669Y1289988D03*
D20*
X1433901Y1258398D02*
X1453901Y1258398D01*
X1453901Y1319398D02*
X1433901Y1319398D01*
X1395901Y1299398D02*
X1395901Y1279398D01*
D21*
X1289283Y1179095D03*
X1289283Y1280695D03*
D17*
X1137795Y1164975D02*
X1137795Y1151895D01*
X1117795Y1151895D02*
X1117795Y1164975D01*
X1097795Y1164975D02*
X1097795Y1151895D01*
X1137595Y1196995D02*
X1137595Y1210075D01*
X1118095Y1210075D02*
X1118095Y1196995D01*
X1097995Y1197095D02*
X1097995Y1210175D01*
D14*
X1086041Y1270101D02*
X1070801Y1270101D01*
X1070801Y1295501D02*
X1086041Y1295501D01*
X1086041Y1320901D02*
X1070801Y1320901D01*
D22*
X1347482Y1310277D03*
D23*
X1322082Y1310277D03*
D24*
X952217Y1298516D03*
D23*
X952217Y1323916D03*
D25*
X1026047Y1295742D03*
D26*
X897928Y1290071D03*
X777470Y1289922D03*
M02*
